solid beispiel
  facet normal 0.000000 0.000000 1.000000
    outer loop
      vertex 0.000000 0.000000 12.000000
      vertex 15.000000 0.000000 12.000000
      vertex 10.606602 10.606602 12.000000
    endloop
  endfacet
  facet normal 0.000000 0.000000 1.000000
    outer loop
      vertex 0.000000 0.000000 12.000000
      vertex 10.606602 10.606602 12.000000
      vertex 0.000000 15.000000 12.000000
    endloop
  endfacet
  facet normal 0.000000 -0.000000 1.000000
    outer loop
      vertex 0.000000 0.000000 12.000000
      vertex 0.000000 15.000000 12.000000
      vertex -10.606602 10.606602 12.000000
    endloop
  endfacet
  facet normal 0.000000 0.000000 1.000000
    outer loop
      vertex 0.000000 0.000000 12.000000
      vertex -10.606602 10.606602 12.000000
      vertex -15.000000 0.000000 12.000000
    endloop
  endfacet
  facet normal 0.000000 0.000000 1.000000
    outer loop
      vertex 0.000000 0.000000 12.000000
      vertex -15.000000 0.000000 12.000000
      vertex -10.606602 -10.606602 12.000000
    endloop
  endfacet
  facet normal 0.000000 0.000000 1.000000
    outer loop
      vertex 0.000000 0.000000 12.000000
      vertex -10.606602 -10.606602 12.000000
      vertex -0.000000 -15.000000 12.000000
    endloop
  endfacet
  facet normal 0.000000 0.000000 1.000000
    outer loop
      vertex 0.000000 0.000000 12.000000
      vertex -0.000000 -15.000000 12.000000
      vertex 10.606602 -10.606602 12.000000
    endloop
  endfacet
  facet normal -0.000000 0.000000 1.000000
    outer loop
      vertex 0.000000 0.000000 12.000000
      vertex 10.606602 -10.606602 12.000000
      vertex 15.000000 0.000000 12.000000
    endloop
  endfacet
  facet normal 0.000000 0.000000 -1.000000
    outer loop
      vertex 0.000000 0.000000 0.000000
      vertex 10.606602 10.606602 0.000000
      vertex 15.000000 0.000000 0.000000
    endloop
  endfacet
  facet normal 0.000000 0.000000 -1.000000
    outer loop
      vertex 0.000000 0.000000 0.000000
      vertex 0.000000 15.000000 0.000000
      vertex 10.606602 10.606602 0.000000
    endloop
  endfacet
  facet normal 0.000000 0.000000 -1.000000
    outer loop
      vertex 0.000000 0.000000 0.000000
      vertex -10.606602 10.606602 0.000000
      vertex 0.000000 15.000000 0.000000
    endloop
  endfacet
  facet normal 0.000000 0.000000 -1.000000
    outer loop
      vertex 0.000000 0.000000 0.000000
      vertex -15.000000 0.000000 0.000000
      vertex -10.606602 10.606602 0.000000
    endloop
  endfacet
  facet normal -0.000000 0.000000 -1.000000
    outer loop
      vertex 0.000000 0.000000 0.000000
      vertex -10.606602 -10.606602 0.000000
      vertex -15.000000 0.000000 0.000000
    endloop
  endfacet
  facet normal 0.000000 0.000000 -1.000000
    outer loop
      vertex 0.000000 0.000000 0.000000
      vertex -0.000000 -15.000000 0.000000
      vertex -10.606602 -10.606602 0.000000
    endloop
  endfacet
  facet normal 0.000000 -0.000000 -1.000000
    outer loop
      vertex 0.000000 0.000000 0.000000
      vertex 10.606602 -10.606602 0.000000
      vertex -0.000000 -15.000000 0.000000
    endloop
  endfacet
  facet normal 0.000000 0.000000 -1.000000
    outer loop
      vertex 0.000000 0.000000 0.000000
      vertex 15.000000 0.000000 0.000000
      vertex 10.606602 -10.606602 0.000000
    endloop
  endfacet
  facet normal 0.923880 0.382683 0.000000
    outer loop
      vertex 15.000000 0.000000 0.000000
      vertex 10.606602 10.606602 0.000000
      vertex 10.606602 10.606602 12.000000
    endloop
  endfacet
  facet normal 0.923880 0.382683 -0.000000
    outer loop
      vertex 15.000000 0.000000 0.000000
      vertex 10.606602 10.606602 12.000000
      vertex 15.000000 0.000000 12.000000
    endloop
  endfacet
  facet normal 0.382683 0.923880 0.000000
    outer loop
      vertex 10.606602 10.606602 0.000000
      vertex 0.000000 15.000000 0.000000
      vertex 0.000000 15.000000 12.000000
    endloop
  endfacet
  facet normal 0.382683 0.923880 -0.000000
    outer loop
      vertex 10.606602 10.606602 0.000000
      vertex 0.000000 15.000000 12.000000
      vertex 10.606602 10.606602 12.000000
    endloop
  endfacet
  facet normal -0.382683 0.923880 0.000000
    outer loop
      vertex 0.000000 15.000000 0.000000
      vertex -10.606602 10.606602 0.000000
      vertex -10.606602 10.606602 12.000000
    endloop
  endfacet
  facet normal -0.382683 0.923880 0.000000
    outer loop
      vertex 0.000000 15.000000 0.000000
      vertex -10.606602 10.606602 12.000000
      vertex 0.000000 15.000000 12.000000
    endloop
  endfacet
  facet normal -0.923880 0.382683 0.000000
    outer loop
      vertex -10.606602 10.606602 0.000000
      vertex -15.000000 0.000000 0.000000
      vertex -15.000000 0.000000 12.000000
    endloop
  endfacet
  facet normal -0.923880 0.382683 0.000000
    outer loop
      vertex -10.606602 10.606602 0.000000
      vertex -15.000000 0.000000 12.000000
      vertex -10.606602 10.606602 12.000000
    endloop
  endfacet
  facet normal -0.923880 -0.382683 0.000000
    outer loop
      vertex -15.000000 0.000000 0.000000
      vertex -10.606602 -10.606602 0.000000
      vertex -10.606602 -10.606602 12.000000
    endloop
  endfacet
  facet normal -0.923880 -0.382683 0.000000
    outer loop
      vertex -15.000000 0.000000 0.000000
      vertex -10.606602 -10.606602 12.000000
      vertex -15.000000 0.000000 12.000000
    endloop
  endfacet
  facet normal -0.382683 -0.923880 0.000000
    outer loop
      vertex -10.606602 -10.606602 0.000000
      vertex -0.000000 -15.000000 0.000000
      vertex -0.000000 -15.000000 12.000000
    endloop
  endfacet
  facet normal -0.382683 -0.923880 0.000000
    outer loop
      vertex -10.606602 -10.606602 0.000000
      vertex -0.000000 -15.000000 12.000000
      vertex -10.606602 -10.606602 12.000000
    endloop
  endfacet
  facet normal 0.382683 -0.923880 0.000000
    outer loop
      vertex -0.000000 -15.000000 0.000000
      vertex 10.606602 -10.606602 0.000000
      vertex 10.606602 -10.606602 12.000000
    endloop
  endfacet
  facet normal 0.382683 -0.923880 0.000000
    outer loop
      vertex -0.000000 -15.000000 0.000000
      vertex 10.606602 -10.606602 12.000000
      vertex -0.000000 -15.000000 12.000000
    endloop
  endfacet
  facet normal 0.923880 -0.382683 0.000000
    outer loop
      vertex 10.606602 -10.606602 0.000000
      vertex 15.000000 0.000000 0.000000
      vertex 15.000000 0.000000 12.000000
    endloop
  endfacet
  facet normal 0.923880 -0.382683 0.000000
    outer loop
      vertex 10.606602 -10.606602 0.000000
      vertex 15.000000 0.000000 12.000000
      vertex 10.606602 -10.606602 12.000000
    endloop
  endfacet
endsolid beispiel
